<?xml version="1.0" encoding="UTF-8" standalone="no"?>
<!DOCTYPE svg PUBLIC "-//W3C//DTD SVG 1.1//EN" "http://www.w3.org/Graphics/SVG/1.1/DTD/svg11.dtd">
<svg width="100%" height="100%" viewBox="0 0 512 512" version="1.1" xmlns="http://www.w3.org/2000/svg" xmlns:xlink="http://www.w3.org/1999/xlink" xml:space="preserve" xmlns:serif="http://www.serif.com/" style="fill-rule:evenodd;clip-rule:evenodd;stroke-linejoin:round;stroke-miterlimit:2;">
    <path d="M134.515,146.769L144.7,145.878C145.182,149.96 146.304,153.308 148.067,155.924C149.829,158.54 152.566,160.655 156.276,162.269C159.986,163.883 164.161,164.69 168.799,164.69C172.917,164.69 176.553,164.078 179.707,162.853C182.861,161.629 185.208,159.95 186.747,157.816C188.287,155.683 189.057,153.355 189.057,150.832C189.057,148.271 188.315,146.036 186.831,144.125C185.347,142.214 182.898,140.609 179.484,139.311C177.295,138.457 172.453,137.131 164.958,135.331C157.463,133.532 152.213,131.834 149.208,130.239C145.312,128.198 142.409,125.666 140.498,122.642C138.587,119.618 137.631,116.232 137.631,112.485C137.631,108.366 138.8,104.517 141.138,100.936C143.475,97.356 146.889,94.638 151.378,92.783C155.868,90.928 160.858,90 166.35,90C172.398,90 177.731,90.974 182.351,92.922C186.97,94.87 190.523,97.736 193.009,101.521C195.495,105.305 196.83,109.591 197.016,114.377L186.664,115.156C186.107,109.999 184.224,106.103 181.015,103.469C177.805,100.834 173.065,99.517 166.795,99.517C160.265,99.517 155.506,100.714 152.519,103.107C149.532,105.5 148.039,108.385 148.039,111.761C148.039,114.693 149.096,117.104 151.211,118.997C153.289,120.889 158.716,122.828 167.491,124.813C176.266,126.798 182.286,128.532 185.551,130.016C190.3,132.205 193.806,134.979 196.07,138.337C198.333,141.695 199.465,145.563 199.465,149.941C199.465,154.282 198.222,158.373 195.736,162.213C193.25,166.053 189.679,169.04 185.022,171.174C180.366,173.307 175.125,174.374 169.299,174.374C161.916,174.374 155.729,173.298 150.738,171.146C145.748,168.994 141.833,165.756 138.995,161.434C136.157,157.111 134.663,152.223 134.515,146.769ZM237.533,172.982L205.921,91.391L217.608,91.391L238.813,150.665C240.52,155.414 241.948,159.866 243.099,164.022C244.36,159.569 245.826,155.117 247.495,150.665L269.535,91.391L280.555,91.391L248.609,172.982L237.533,172.982ZM328.419,140.98L328.419,131.408L362.981,131.352L362.981,161.629C357.675,165.859 352.202,169.04 346.562,171.174C340.923,173.307 335.134,174.374 329.198,174.374C321.183,174.374 313.902,172.658 307.353,169.226C300.804,165.794 295.86,160.831 292.521,154.338C289.182,147.845 287.512,140.591 287.512,132.577C287.512,124.636 289.172,117.225 292.493,110.342C295.814,103.459 300.591,98.348 306.824,95.009C313.058,91.67 320.237,90 328.363,90C334.263,90 339.596,90.955 344.364,92.866C349.132,94.777 352.87,97.439 355.579,100.853C358.287,104.266 360.346,108.719 361.756,114.21L352.017,116.882C350.792,112.726 349.271,109.461 347.453,107.086C345.635,104.712 343.038,102.81 339.661,101.382C336.285,99.953 332.537,99.239 328.419,99.239C323.484,99.239 319.217,99.99 315.618,101.493C312.019,102.996 309.115,104.971 306.908,107.42C304.7,109.869 302.984,112.559 301.76,115.49C299.682,120.536 298.643,126.009 298.643,131.909C298.643,139.181 299.895,145.266 302.4,150.164C304.904,155.061 308.55,158.698 313.336,161.072C318.122,163.447 323.206,164.634 328.586,164.634C333.261,164.634 337.824,163.734 342.277,161.935C346.729,160.135 350.106,158.215 352.406,156.174L352.406,140.98L328.419,140.98ZM152.658,290.694L152.658,209.103L163.456,209.103L163.456,290.694L152.658,290.694ZM219.779,269.044L229.63,270.324C228.554,277.114 225.799,282.429 221.365,286.269C216.931,290.11 211.486,292.03 205.03,292.03C196.942,292.03 190.439,289.386 185.523,284.099C180.607,278.811 178.149,271.233 178.149,261.363C178.149,254.982 179.206,249.398 181.321,244.611C183.436,239.825 186.655,236.235 190.977,233.842C195.3,231.449 200.003,230.252 205.086,230.252C211.505,230.252 216.755,231.875 220.836,235.122C224.918,238.368 227.534,242.979 228.684,248.952L218.944,250.455C218.017,246.485 216.375,243.498 214.019,241.494C211.663,239.491 208.815,238.489 205.476,238.489C200.429,238.489 196.329,240.298 193.176,243.915C190.022,247.533 188.445,253.256 188.445,261.085C188.445,269.025 189.966,274.795 193.009,278.394C196.051,281.993 200.021,283.793 204.919,283.793C208.852,283.793 212.136,282.587 214.77,280.175C217.404,277.763 219.074,274.053 219.779,269.044ZM234.472,261.141C234.472,250.195 237.515,242.088 243.6,236.819C248.683,232.441 254.879,230.252 262.189,230.252C270.314,230.252 276.956,232.914 282.113,238.239C287.271,243.563 289.849,250.919 289.849,260.306C289.849,267.912 288.708,273.895 286.427,278.255C284.145,282.615 280.824,286 276.464,288.412C272.105,290.824 267.346,292.03 262.189,292.03C253.914,292.03 247.226,289.377 242.125,284.071C237.023,278.765 234.472,271.122 234.472,261.141ZM244.768,261.141C244.768,268.71 246.419,274.378 249.722,278.144C253.024,281.91 257.18,283.793 262.189,283.793C267.16,283.793 271.298,281.9 274.6,278.116C277.902,274.331 279.553,268.562 279.553,260.807C279.553,253.497 277.893,247.96 274.572,244.194C271.251,240.428 267.123,238.545 262.189,238.545C257.18,238.545 253.024,240.418 249.722,244.166C246.419,247.913 244.768,253.572 244.768,261.141ZM301.593,290.694L301.593,231.588L310.609,231.588L310.609,239.992C314.95,233.499 321.221,230.252 329.42,230.252C332.982,230.252 336.257,230.892 339.244,232.172C342.231,233.452 344.466,235.131 345.95,237.209C347.434,239.287 348.473,241.754 349.067,244.611C349.438,246.466 349.623,249.713 349.623,254.351L349.623,290.694L339.605,290.694L339.605,254.74C339.605,250.659 339.216,247.607 338.437,245.585C337.658,243.563 336.275,241.949 334.29,240.743C332.305,239.537 329.977,238.934 327.306,238.934C323.039,238.934 319.356,240.289 316.258,242.997C313.16,245.706 311.611,250.845 311.611,258.414L311.611,290.694L301.593,290.694ZM36.338,408.405L36.338,326.814L47.135,326.814L47.135,398.777L87.319,398.777L87.319,408.405L36.338,408.405ZM98.951,338.335L98.951,326.814L108.969,326.814L108.969,338.335L98.951,338.335ZM98.951,408.405L98.951,349.299L108.969,349.299L108.969,408.405L98.951,408.405ZM133.457,408.405L124.163,408.405L124.163,326.814L134.181,326.814L134.181,355.922C138.411,350.616 143.809,347.964 150.377,347.964C154.013,347.964 157.454,348.696 160.701,350.162C163.947,351.628 166.619,353.687 168.715,356.34C170.811,358.993 172.453,362.193 173.641,365.94C174.828,369.688 175.422,373.695 175.422,377.962C175.422,388.091 172.917,395.92 167.908,401.449C162.899,406.977 156.888,409.741 149.876,409.741C142.9,409.741 137.427,406.829 133.457,401.003L133.457,408.405ZM133.346,378.407C133.346,385.494 134.311,390.614 136.24,393.768C139.394,398.925 143.661,401.504 149.041,401.504C153.419,401.504 157.204,399.603 160.395,395.799C163.585,391.996 165.181,386.329 165.181,378.797C165.181,371.079 163.65,365.384 160.589,361.71C157.528,358.037 153.827,356.201 149.486,356.201C145.108,356.201 141.323,358.102 138.132,361.905C134.941,365.708 133.346,371.209 133.346,378.407ZM187.499,408.405L187.499,349.299L196.515,349.299L196.515,358.26C198.815,354.067 200.94,351.303 202.888,349.967C204.836,348.631 206.978,347.964 209.316,347.964C212.692,347.964 216.124,349.04 219.612,351.192L216.161,360.486C213.713,359.039 211.264,358.315 208.815,358.315C206.626,358.315 204.659,358.974 202.915,360.291C201.172,361.608 199.929,363.436 199.186,365.773C198.073,369.335 197.517,373.231 197.517,377.461L197.517,408.405L187.499,408.405ZM264.137,401.115C260.426,404.268 256.855,406.495 253.423,407.793C249.991,409.092 246.308,409.741 242.375,409.741C235.882,409.741 230.892,408.155 227.404,404.983C223.916,401.81 222.172,397.757 222.172,392.822C222.172,389.928 222.831,387.284 224.148,384.891C225.465,382.498 227.19,380.578 229.324,379.131C231.457,377.684 233.86,376.589 236.531,375.847C238.498,375.328 241.466,374.827 245.436,374.344C253.525,373.38 259.48,372.229 263.302,370.894C263.339,369.521 263.357,368.649 263.357,368.278C263.357,364.196 262.411,361.321 260.519,359.651C257.959,357.388 254.156,356.256 249.11,356.256C244.397,356.256 240.919,357.082 238.674,358.733C236.429,360.384 234.769,363.306 233.693,367.499L223.898,366.163C224.788,361.97 226.254,358.584 228.294,356.006C230.335,353.427 233.285,351.442 237.144,350.051C241.002,348.659 245.473,347.964 250.557,347.964C255.603,347.964 259.703,348.557 262.856,349.745C266.01,350.932 268.329,352.425 269.813,354.225C271.298,356.024 272.336,358.297 272.93,361.043C273.264,362.749 273.431,365.829 273.431,370.281L273.431,383.639C273.431,392.952 273.644,398.842 274.071,401.309C274.498,403.777 275.342,406.142 276.603,408.405L266.14,408.405C265.101,406.328 264.433,403.897 264.137,401.115ZM263.302,378.741C259.666,380.225 254.211,381.487 246.939,382.526C242.82,383.119 239.908,383.787 238.201,384.529C236.494,385.271 235.177,386.357 234.249,387.785C233.322,389.214 232.858,390.8 232.858,392.544C232.858,395.215 233.869,397.441 235.891,399.222C237.913,401.003 240.872,401.894 244.768,401.894C248.627,401.894 252.059,401.05 255.065,399.361C258.07,397.673 260.278,395.364 261.688,392.432C262.764,390.169 263.302,386.83 263.302,382.414L263.302,378.741ZM288.848,408.405L288.848,349.299L297.864,349.299L297.864,358.26C300.164,354.067 302.288,351.303 304.236,349.967C306.184,348.631 308.327,347.964 310.665,347.964C314.041,347.964 317.473,349.04 320.961,351.192L317.51,360.486C315.061,359.039 312.613,358.315 310.164,358.315C307.975,358.315 306.008,358.974 304.264,360.291C302.52,361.608 301.277,363.436 300.535,365.773C299.422,369.335 298.866,373.231 298.866,377.461L298.866,408.405L288.848,408.405ZM326.972,338.335L326.972,326.814L336.99,326.814L336.99,338.335L326.972,338.335ZM326.972,408.405L326.972,349.299L336.99,349.299L336.99,408.405L326.972,408.405ZM390.809,401.115C387.098,404.268 383.527,406.495 380.095,407.793C376.663,409.092 372.98,409.741 369.047,409.741C362.554,409.741 357.564,408.155 354.076,404.983C350.588,401.81 348.844,397.757 348.844,392.822C348.844,389.928 349.503,387.284 350.82,384.891C352.137,382.498 353.863,380.578 355.996,379.131C358.129,377.684 360.532,376.589 363.203,375.847C365.17,375.328 368.138,374.827 372.108,374.344C380.197,373.38 386.152,372.229 389.974,370.894C390.011,369.521 390.029,368.649 390.029,368.278C390.029,364.196 389.083,361.321 387.191,359.651C384.631,357.388 380.828,356.256 375.782,356.256C371.069,356.256 367.591,357.082 365.346,358.733C363.101,360.384 361.441,363.306 360.365,367.499L350.57,366.163C351.46,361.97 352.926,358.584 354.966,356.006C357.007,353.427 359.957,351.442 363.816,350.051C367.674,348.659 372.145,347.964 377.229,347.964C382.275,347.964 386.375,348.557 389.528,349.745C392.682,350.932 395.001,352.425 396.485,354.225C397.97,356.024 399.008,358.297 399.602,361.043C399.936,362.749 400.103,365.829 400.103,370.281L400.103,383.639C400.103,392.952 400.316,398.842 400.743,401.309C401.17,403.777 402.014,406.142 403.275,408.405L392.812,408.405C391.773,406.328 391.105,403.897 390.809,401.115ZM389.974,378.741C386.338,380.225 380.883,381.487 373.611,382.526C369.492,383.119 366.58,383.787 364.873,384.529C363.166,385.271 361.849,386.357 360.922,387.785C359.994,389.214 359.53,390.8 359.53,392.544C359.53,395.215 360.541,397.441 362.563,399.222C364.586,401.003 367.545,401.894 371.44,401.894C375.299,401.894 378.731,401.05 381.737,399.361C384.742,397.673 386.95,395.364 388.36,392.432C389.436,390.169 389.974,386.83 389.974,382.414L389.974,378.741ZM415.631,408.405L415.631,349.299L424.647,349.299L424.647,357.703C428.988,351.21 435.259,347.964 443.459,347.964C447.021,347.964 450.295,348.604 453.282,349.884C456.269,351.164 458.504,352.843 459.988,354.92C461.473,356.998 462.511,359.466 463.105,362.323C463.476,364.178 463.662,367.424 463.662,372.062L463.662,408.405L453.644,408.405L453.644,372.452C453.644,368.371 453.254,365.319 452.475,363.297C451.696,361.274 450.314,359.66 448.329,358.455C446.344,357.249 444.015,356.646 441.344,356.646C437.077,356.646 433.394,358 430.296,360.709C427.198,363.417 425.649,368.556 425.649,376.125L425.649,408.405L415.631,408.405Z"/>
</svg>
