<?xml version="1.0" encoding="UTF-8" standalone="no"?>
<!DOCTYPE svg PUBLIC "-//W3C//DTD SVG 1.1//EN" "http://www.w3.org/Graphics/SVG/1.1/DTD/svg11.dtd">
<svg width="100%" height="100%" viewBox="0 0 512 512" version="1.1" xmlns="http://www.w3.org/2000/svg" xmlns:xlink="http://www.w3.org/1999/xlink" xml:space="preserve" xmlns:serif="http://www.serif.com/" style="fill-rule:evenodd;clip-rule:evenodd;stroke-linejoin:round;stroke-miterlimit:2;">
    <path d="M260.898,35.377L312.208,193.296L478.254,193.296C483.218,193.296 487.617,196.492 489.151,201.213C490.685,205.934 489.005,211.106 484.989,214.024L350.655,311.623L401.966,469.541C403.5,474.262 401.82,479.434 397.803,482.352C393.787,485.27 388.349,485.27 384.333,482.352L250,384.753L115.667,482.352C111.651,485.27 106.213,485.27 102.197,482.352C98.18,479.434 96.5,474.262 98.034,469.541L149.345,311.623L15.011,214.024C10.995,211.106 9.315,205.934 10.849,201.213C12.383,196.492 16.782,193.296 21.746,193.296L187.792,193.296L239.102,35.377C240.636,30.656 245.036,27.46 250,27.46C254.964,27.46 259.364,30.656 260.898,35.377ZM250,75.998L207.014,208.295C205.48,213.016 201.081,216.212 196.117,216.212L57.012,216.212L169.55,297.976C173.566,300.894 175.246,306.066 173.712,310.787L130.727,443.084L243.265,361.32C247.281,358.402 252.719,358.402 256.735,361.32L369.273,443.084L326.288,310.787C324.754,306.066 326.434,300.894 330.45,297.976L442.988,216.212L303.883,216.212C298.919,216.212 294.52,213.016 292.986,208.295L250,75.998Z"/>
</svg>
